<svg width="33" height="33" viewBox="0 0 33 33" fill="none" xmlns="http://www.w3.org/2000/svg">
<path d="M23.4023 1.20981C25.0153 -0.403268 27.635 -0.403268 29.248 1.20981L31.7902 3.75415C33.4033 5.36671 33.4033 7.98397 31.7902 9.59717L28.6673 12.7203L20.2794 4.33297L23.4023 1.20981ZM27.2091 14.1787L12.1625 29.2202C11.4914 29.8913 10.6591 30.3881 9.74933 30.6527L1.98534 32.937C1.44206 33.0983 0.854263 32.9499 0.453578 32.4917C0.0528809 32.1497 -0.0969273 31.5625 0.0629593 31.014L2.34667 23.2513C2.61508 22.3415 3.10739 21.5091 3.77907 20.838L18.8212 5.79259L27.2091 14.1787Z" fill="white"/>
</svg>
